<svg width="22" height="27" viewBox="0 0 22 27" fill="none" xmlns="http://www.w3.org/2000/svg">
<g id="Document">
<path id="Exclude" fill-rule="evenodd" clip-rule="evenodd" d="M5.13245 26.2914C5.56315 26.3719 6.02076 26.4128 6.50295 26.4128H15.544C19.3137 26.4128 21.5562 23.9171 21.5562 19.7529V7.50178V7.40333C21.5211 3.29662 19.2845 0.841797 15.544 0.841797H6.50295C3.12762 0.841797 0.968303 2.84145 0.559846 6.27437C0.513031 6.6656 0.489624 7.07474 0.489624 7.50178V19.7529C0.489624 23.2868 2.10238 25.6086 4.87732 26.239L5.13245 26.2914ZM2.17139 7.50204C2.17139 4.31972 3.62849 2.70491 6.5029 2.70491H15.5334C18.4067 2.70491 19.8544 4.31972 19.8544 7.50204V19.7531C19.8544 22.9354 18.4067 24.5503 15.5334 24.5503H6.5029C3.62849 24.5503 2.17139 22.9354 2.17139 19.7531V7.50204Z" fill="#17BCF3"/>
</g>
</svg>
