<svg width="24" height="23" viewBox="0 0 24 23" fill="none" xmlns="http://www.w3.org/2000/svg">
<g id="Ticket Star">
<path id="Stroke 1" fill-rule="evenodd" clip-rule="evenodd" d="M18.6263 21.8716C20.7661 21.8716 22.4985 19.9778 22.4985 17.6414V14.2753C21.0834 14.2753 19.9421 13.0285 19.9421 11.4838C19.9421 9.93786 21.0834 8.69238 22.4985 8.69238L22.4962 5.32245C22.4962 2.98607 20.7638 1.09229 18.6251 1.09229H5.25898C3.1203 1.09229 1.38676 2.98607 1.38676 5.32245L1.38562 8.80084C2.79961 8.80084 3.94085 9.93786 3.94085 11.4838C3.94085 13.0285 2.79961 14.2753 1.38562 14.2753V17.6414C1.38562 19.9778 3.11802 21.8716 5.2567 21.8716H18.6263Z" stroke="#3229E1" stroke-width="1.66216" stroke-linecap="round" stroke-linejoin="round"/>
<path id="Stroke 3" fill-rule="evenodd" clip-rule="evenodd" d="M11.9414 13.6899L13.9272 14.8307C14.1132 14.9367 14.3312 14.7646 14.2958 14.5389L13.9158 12.1215L15.5238 10.4123C15.6744 10.2514 15.5911 9.97341 15.3834 9.93975L13.1625 9.58692L12.1685 7.38768C12.0761 7.18197 11.8079 7.18197 11.7143 7.38768L10.7203 9.58692L8.50059 9.93975C8.29289 9.97341 8.20958 10.2514 8.36022 10.4123L9.96708 12.1215L9.58705 14.5389C9.55167 14.7646 9.76965 14.9367 9.95567 14.8307L11.9414 13.6899Z" stroke="#3229E1" stroke-width="1.66216" stroke-linecap="round" stroke-linejoin="round"/>
</g>
</svg>
