<svg width="21" height="26" viewBox="0 0 21 26" fill="none" xmlns="http://www.w3.org/2000/svg">
<g id="Group 233">
<g id="Group 220">
<path id="Stroke 1" fill-rule="evenodd" clip-rule="evenodd" d="M5.49593 0.0170898H13.3573C13.5986 0.0170898 13.8295 0.12459 13.9966 0.314761L19.9816 7.12534C20.14 7.30563 20.2285 7.54588 20.2285 7.79581V19.6278C20.2285 22.8538 17.8349 25.6445 14.936 25.6445H5.49593C2.44804 25.6445 0.0793457 22.9848 0.0793457 19.6278V5.79885C0.0793457 2.62182 2.55687 0.0170898 5.49593 0.0170898ZM18.4551 8.18533L12.9783 1.95306L5.49583 1.95422C3.52078 1.95422 1.85168 3.70901 1.85168 5.79969V19.6287C1.85168 21.928 3.43789 23.7091 5.49583 23.7091H14.9359C16.8291 23.7091 18.4559 21.8124 18.4559 19.6287L18.4551 8.18533Z" fill="#EE9311"/>
<path id="Stroke 3" d="M13.0469 0.00292969C13.4955 0.00292969 13.8663 0.367151 13.925 0.839703L13.9331 0.971074V4.72618C13.9331 6.02538 14.8952 7.07926 16.0833 7.08201L19.2784 7.08152C19.7668 7.04634 20.1888 7.45034 20.221 7.98387C20.2532 8.5174 19.8834 8.97844 19.395 9.01361L17.4207 9.02097C17.0265 9.02044 16.5781 9.01953 16.0794 9.01829C13.9885 9.01346 12.282 7.22308 12.1668 4.96937L12.1606 4.72618V0.971074C12.1606 0.436383 12.5574 0.00292969 13.0469 0.00292969Z" fill="#EE9311"/>
</g>
<path id="Stroke 5" opacity="0.4" d="M12.8223 16.5356C13.3118 16.5356 13.7085 16.9691 13.7085 17.5038C13.7085 17.9939 13.3751 18.399 12.9426 18.4631L12.8223 18.4719H6.44506C5.95561 18.4719 5.55884 18.0385 5.55884 17.5038C5.55884 17.0137 5.89224 16.6086 6.3248 16.5445L6.44506 16.5356H12.8223Z" fill="#EE9311"/>
<path id="Stroke 7" opacity="0.4" d="M10.4101 10.1431C10.8996 10.1431 11.2963 10.5765 11.2963 11.1112C11.2963 11.6013 10.9629 12.0064 10.5304 12.0705L10.4101 12.0794H6.44457C5.95512 12.0794 5.55835 11.6459 5.55835 11.1112C5.55835 10.6211 5.89175 10.216 6.32432 10.1519L6.44457 10.1431H10.4101Z" fill="#EE9311"/>
</g>
</svg>
