<svg width="203" height="155" viewBox="0 0 203 155" fill="none" xmlns="http://www.w3.org/2000/svg">
<path fill-rule="evenodd" clip-rule="evenodd" d="M100.393 17.9726C103.553 15.1008 107.727 13.3 111.856 11.5727C108.208 10.4253 104.367 9.71888 100.393 9.51588V17.9726ZM127.533 26.9383C128.21 26.9383 128.759 27.4898 128.759 28.1702C128.759 28.8507 128.21 29.4022 127.533 29.4022C126.855 29.4022 126.306 28.8507 126.306 28.1702C126.306 27.4898 126.855 26.9383 127.533 26.9383ZM107.49 45.5071C108.762 45.5071 109.793 46.543 109.793 47.8206C109.793 49.0983 108.762 50.1342 107.49 50.1342C106.218 50.1342 105.186 49.0983 105.186 47.8206C105.186 46.543 106.218 45.5071 107.49 45.5071ZM137.375 44.1248C138.498 44.1248 139.409 45.0395 139.409 46.168C139.409 47.2964 138.498 48.2111 137.375 48.2111C136.251 48.2111 135.341 47.2964 135.341 46.168C135.341 45.0395 136.251 44.1248 137.375 44.1248ZM120.922 31.0246C122.376 31.0246 123.554 32.2084 123.554 33.6688C123.554 35.1292 122.376 36.313 120.922 36.313C119.468 36.313 118.289 35.1292 118.289 33.6688C118.289 32.2084 119.468 31.0246 120.922 31.0246ZM103.618 0C100.113 1.08671 100.026 3.82716 102.141 5.17599C128.224 7.29244 148.735 29.2238 148.735 55.9666C148.735 82.2819 128.875 103.938 103.388 106.641C100.021 108.079 100.383 110.952 102.902 112C131.534 109.506 154 85.3712 154 55.9666C154 26.8075 131.908 2.83058 103.618 0ZM142.041 70.3824C134.154 69.1668 127.114 74.7902 121.443 82.6128C123.048 82.7192 124.677 82.5556 126.324 82.1985C129.313 81.5504 132.51 78.5813 135.574 77.114C137.015 76.4236 138.528 75.958 139.926 75.7435C140.737 74.0122 141.445 72.2223 142.041 70.3821L142.041 70.3824ZM103.83 85.6327C108.178 86.1832 112.602 90.3939 117.009 91.5073C120.193 92.3116 124.234 92.3218 127.696 91.6569C130.64 89.1828 133.274 86.3482 135.529 83.2202C128.243 87.719 125.249 87.6585 120.165 86.8537C114.988 86.0342 109.496 80.3586 104.308 80.0363C103.076 79.9598 101.706 80.1099 100.392 80.4541V85.2917C101.583 85.354 102.902 85.5153 103.83 85.6327ZM100.392 89.568V95.1952C104.267 96.0861 108.972 99.0635 113.15 99.9317C115.786 99.0156 118.314 97.8671 120.709 96.5108C113.263 96.9931 107.932 90.3391 100.392 89.568H100.392ZM100.392 75.9246C106.512 74.855 111.903 76.9051 116.476 80.5143L120.578 76.1466C114.029 70.8256 107.7 68.3561 100.392 73.3267V75.9246H100.392ZM131.504 67.474C126.637 63.9263 120.943 63.7597 114.93 67.0926C118.101 68.1943 121.273 69.852 123.845 72.7564C125.62 70.4549 128.113 69.0544 131.504 67.474ZM118.725 55.6328C113.011 56.597 105.335 60.1733 100.392 66.9262V66.9762C103.278 65.9484 106.531 65.422 109.895 65.4461C114.056 62.3312 118.442 61.0016 122.858 60.9511C127.758 60.8952 132.704 62.3828 137.203 65.6403C139.262 65.2746 141.369 65.02 143.391 65.2227C143.484 64.7581 143.571 64.2909 143.65 63.8212C136.531 56.4263 126.959 54.2433 118.725 55.6325V55.6328ZM129.35 21.7342C117.234 23.6974 107.252 29.9358 100.392 41.2851V59.695C105.386 54.4821 111.352 51.674 118.042 50.6566C114.685 48.2497 111.886 44.9711 109.965 40.3207C107.886 35.5632 112.747 32.6086 114.273 37.1357C115.284 41.1891 117.43 43.9392 120.675 45.4284C122.735 40.927 125.614 37.5909 129.589 35.8136C134.769 33.5508 137.223 39.8689 131.504 41.1017C127.849 41.9926 125.466 45.4383 123.726 50.1757C130.429 49.8718 137.3 52.546 144.29 57.2828C144.302 56.8452 144.308 56.4063 144.308 55.966C144.308 42.4243 138.546 30.234 129.35 21.734V21.7342ZM100.392 33.3139C106.613 25.5491 114.665 20.7267 123.471 17.1162C121.489 15.8032 119.402 14.6389 117.224 13.6394C110.907 16.1771 105.117 19.3661 100.392 23.8715V33.3139Z" fill="white"/>
<path fill-rule="evenodd" clip-rule="evenodd" d="M47.2649 55.9665C47.2649 29.3337 67.607 7.47292 93.537 5.20294C95.6054 3.83406 95.4765 1.10992 91.944 0.0454102C63.8645 3.0782 42 26.9578 42 55.9665C42 57.8259 42.0897 59.6642 42.2655 61.4776C43.6761 64.6498 46.5587 64.1646 47.5587 61.4795C47.3648 59.6685 47.2652 57.8291 47.2652 55.9668L47.2649 55.9665ZM73.8655 27.2988C75.6665 27.2988 77.1263 28.765 77.1263 30.5739C77.1263 32.3825 75.6665 33.8487 73.8655 33.8487C72.0648 33.8487 70.605 32.3825 70.605 30.5739C70.605 28.765 72.0648 27.2988 73.8655 27.2988ZM90.0195 14.1986C91.8202 14.1986 93.2801 15.6648 93.2801 17.4737C93.2801 19.2823 91.8202 20.7486 90.0195 20.7486C88.2188 20.7486 86.759 19.2823 86.759 17.4737C86.759 15.6648 88.2188 14.1986 90.0195 14.1986ZM85.6222 25.2559C86.4152 25.2559 87.0581 25.9015 87.0581 26.6981C87.0581 27.4946 86.4152 28.1402 85.6222 28.1402C84.8292 28.1402 84.1863 27.4946 84.1863 26.6981C84.1863 25.9015 84.8292 25.2559 85.6222 25.2559ZM78.3827 19.7274C79.6052 19.7274 80.5964 20.7229 80.5964 21.9508C80.5964 23.1787 79.6052 24.1743 78.3827 24.1743C77.1601 24.1743 76.169 23.1787 76.169 21.9508C76.169 20.7229 77.1601 19.7274 78.3827 19.7274ZM69.6817 43.4796C76.2848 37.091 85.3966 34.1828 95.3673 37.8928V9.52892C76.6975 10.5798 60.9821 22.7388 54.6656 39.5321C60.1971 39.4158 65.3842 40.5782 69.6817 43.4796ZM76.0947 49.9956C82.7531 46.3963 89.1306 46.655 95.3673 48.8436V43.3266C88.4806 39.7362 80.6251 40.5249 73 46.8513L76.0947 49.9959V49.9956ZM87.5587 52.2982C85.0718 52.2116 82.3412 53.0137 80.0143 53.9784L83.7999 57.8254C86.7859 56.2588 90.2374 55.204 95.367 56.8259V54.7083C93.1823 53.3055 90.1916 52.39 87.5584 52.2982H87.5587ZM83.4239 60.0421C76.0065 53.5791 67.8682 43.841 52.9578 45.1192C52.156 48.4903 51.7195 52.0037 51.6929 55.6153C62.079 50.5161 71.5343 51.7547 80.431 65.549C85.5122 61.2612 88.8066 60.672 95.3673 59.8148V58.5826C90.5692 57.9589 86.5731 58.0493 83.4239 60.0421ZM76.2704 68.2589C70.7584 58.4646 61.7506 55.2056 51.9797 61.1826C52.0788 62.0749 52.2031 62.9594 52.3517 63.8356C61.5147 63.2143 67.933 64.8193 72.8214 71.8224L76.2704 68.2589ZM55.1715 73.6885C55.4248 73.7262 55.6748 73.7698 55.9211 73.819C61.1863 74.8709 63.8371 79.4278 69.2871 75.6752C67.0603 70.4738 60.9805 67.5667 53.3474 68.3381C51.9392 68.4804 50.4781 68.7479 48.9785 69.1493C48.1094 69.382 47.2271 69.6597 46.335 69.9841C44.0981 71.752 44.7021 74.163 47.0002 74.4812C48.0822 74.0795 49.235 73.8059 50.4035 73.6529C52.0093 73.4429 53.6454 73.4609 55.1713 73.6885H55.1715ZM95.367 72.3726V65.7774C78.4349 65.8502 78.2735 78.4774 68.7105 80.9261C65.3541 81.7855 62.0795 81.311 58.3349 79.9841C59.8115 82.4389 61.5072 84.7452 63.3955 86.8761C65.9496 87.2278 68.4096 87.0963 70.7988 86.606C79.6329 84.7936 84.1152 73.761 95.3668 72.3723L95.367 72.3726ZM95.367 77.9C84.9431 79.1902 82.7782 87.4731 75.2841 90.6348C73.4466 91.4099 71.2659 91.7665 68.828 92.0917C70.5674 93.5103 72.4113 94.8049 74.3459 95.9617C83.1355 95.0889 89.0196 84.8463 95.3668 84.7212V77.8997L95.367 77.9ZM95.367 89.9683C88.4883 91.7798 85.394 98.0778 80.6747 99.114C82.6439 99.9126 84.6806 100.579 86.7734 101.102C89.8699 99.8062 92.7752 97.1505 95.3668 95.7921V89.968L95.367 89.9683ZM92.8212 106.663C75.2457 104.873 60.3212 94.0731 52.6979 78.934C50.0903 76.5407 47.662 78.05 47.7368 80.7948C55.9941 97.6264 72.3852 109.709 91.7571 111.867C94.9923 111.38 95.2584 108.407 92.8212 106.663Z" fill="white"/>
<path d="M25.3831 132.84V119.208C25.3831 118.92 25.4311 118.664 25.5271 118.44C25.6391 118.2 25.7991 118 26.0071 117.84C26.2311 117.68 26.4711 117.56 26.7271 117.48C26.9991 117.4 27.3031 117.36 27.6391 117.36C27.9591 117.36 28.2471 117.4 28.5031 117.48C28.7751 117.56 29.0151 117.68 29.2231 117.84C29.4311 118 29.5911 118.2 29.7031 118.44C29.8151 118.664 29.8711 118.928 29.8711 119.232V132.84C29.8711 133.144 29.8151 133.416 29.7031 133.656C29.5911 133.88 29.4311 134.072 29.2231 134.232C29.0151 134.392 28.7751 134.504 28.5031 134.568C28.2471 134.648 27.9591 134.688 27.6391 134.688C27.3031 134.688 26.9991 134.648 26.7271 134.568C26.4711 134.504 26.2311 134.392 26.0071 134.232C25.7991 134.072 25.6391 133.88 25.5271 133.656C25.4311 133.432 25.3831 133.168 25.3831 132.864V132.84ZM32.4584 132.792V123.576C32.4584 123.304 32.5064 123.056 32.6024 122.832C32.6984 122.592 32.8504 122.384 33.0584 122.208C33.2664 122.032 33.4984 121.904 33.7544 121.824C34.0264 121.728 34.3144 121.68 34.6184 121.68C34.8904 121.68 35.1384 121.712 35.3624 121.776C35.5864 121.824 35.7864 121.904 35.9624 122.016C36.1384 122.128 36.2744 122.264 36.3704 122.424C36.4824 122.584 36.5544 122.76 36.5864 122.952C36.8104 122.728 37.0504 122.528 37.3064 122.352C37.5784 122.16 37.8824 122.008 38.2184 121.896C38.5384 121.768 38.9144 121.68 39.3464 121.632C39.7944 121.568 40.2664 121.536 40.7624 121.536C41.6104 121.536 42.3864 121.64 43.0904 121.848C43.7944 122.04 44.4264 122.344 44.9864 122.76C45.5464 123.16 45.9624 123.648 46.2344 124.224C46.5224 124.8 46.6664 125.456 46.6664 126.192V132.792C46.6664 133.096 46.6184 133.368 46.5224 133.608C46.4264 133.832 46.2744 134.032 46.0664 134.208C45.8584 134.368 45.6264 134.488 45.3704 134.568C45.1144 134.648 44.8264 134.688 44.5064 134.688C44.2024 134.688 43.9224 134.648 43.6664 134.568C43.4104 134.488 43.1704 134.368 42.9464 134.208C42.7384 134.032 42.5864 133.832 42.4904 133.608C42.3944 133.368 42.3464 133.104 42.3464 132.816V126.768C42.3464 126.384 42.2744 126.048 42.1304 125.76C41.9864 125.456 41.7784 125.208 41.5064 125.016C41.2504 124.824 40.9544 124.68 40.6184 124.584C40.2824 124.472 39.9224 124.416 39.5384 124.416C39.0904 124.416 38.6984 124.48 38.3624 124.608C38.0264 124.72 37.7384 124.888 37.4984 125.112C37.2584 125.336 37.0744 125.592 36.9464 125.88C36.8344 126.152 36.7784 126.456 36.7784 126.792V132.792C36.7784 133.096 36.7224 133.368 36.6104 133.608C36.5144 133.832 36.3704 134.032 36.1784 134.208C35.9704 134.368 35.7384 134.488 35.4824 134.568C35.2264 134.648 34.9384 134.688 34.6184 134.688C34.3144 134.688 34.0264 134.648 33.7544 134.568C33.4984 134.488 33.2664 134.368 33.0584 134.208C32.8504 134.032 32.6984 133.832 32.6024 133.608C32.5064 133.368 32.4584 133.104 32.4584 132.816V132.792ZM50.2019 132.792V124.824H49.2419C48.9379 124.84 48.6739 124.816 48.4499 124.752C48.2259 124.688 48.0499 124.584 47.9219 124.44C47.7459 124.312 47.6179 124.16 47.5379 123.984C47.4579 123.792 47.4179 123.576 47.4179 123.336C47.4179 123.112 47.4659 122.912 47.5619 122.736C47.6419 122.56 47.7619 122.4 47.9219 122.256C48.0819 122.112 48.2739 122.008 48.4979 121.944C48.7219 121.864 48.9699 121.824 49.2419 121.824L50.2019 121.8V119.736C50.2019 119.464 50.2499 119.216 50.3459 118.992C50.4419 118.752 50.5939 118.544 50.8019 118.368C51.0099 118.192 51.2419 118.064 51.4979 117.984C51.7539 117.888 52.0419 117.84 52.3619 117.84C52.6819 117.84 52.9699 117.888 53.2259 117.984C53.4819 118.064 53.7139 118.192 53.9219 118.368C54.1139 118.544 54.2579 118.752 54.3539 118.992C54.4659 119.216 54.5219 119.472 54.5219 119.76V121.8H55.7459C56.0179 121.816 56.2739 121.856 56.5139 121.92C56.7539 121.968 56.9779 122.048 57.1859 122.16C57.3939 122.272 57.5459 122.432 57.6419 122.64C57.7539 122.832 57.8099 123.064 57.8099 123.336C57.8099 123.608 57.7539 123.84 57.6419 124.032C57.5459 124.224 57.3939 124.384 57.1859 124.512C56.9779 124.624 56.7539 124.712 56.5139 124.776C56.2739 124.824 56.0179 124.848 55.7459 124.848L54.5219 124.824V132.792C54.5219 133.096 54.4659 133.368 54.3539 133.608C54.2579 133.832 54.1139 134.032 53.9219 134.208C53.7139 134.368 53.4819 134.488 53.2259 134.568C52.9699 134.648 52.6819 134.688 52.3619 134.688C52.0419 134.688 51.7539 134.648 51.4979 134.568C51.2419 134.488 51.0099 134.368 50.8019 134.208C50.5939 134.032 50.4419 133.832 50.3459 133.608C50.2499 133.368 50.2019 133.104 50.2019 132.816V132.792ZM70.7247 129.336H61.5087C61.5887 129.768 61.7407 130.144 61.9647 130.464C62.2047 130.784 62.5247 131.048 62.9247 131.256C63.3087 131.464 63.7167 131.616 64.1487 131.712C64.5967 131.808 65.0767 131.856 65.5887 131.856C65.8607 131.856 66.1247 131.84 66.3807 131.808C66.6367 131.76 66.8847 131.704 67.1247 131.64C67.3007 131.592 67.4687 131.544 67.6287 131.496C67.8047 131.432 67.9727 131.368 68.1327 131.304C68.1807 131.272 68.2287 131.248 68.2767 131.232C68.3407 131.2 68.3967 131.176 68.4447 131.16C68.6367 131.08 68.8207 131 68.9967 130.92C69.1887 130.824 69.3727 130.744 69.5487 130.68C69.6607 130.632 69.7647 130.592 69.8607 130.56C69.9727 130.528 70.0767 130.504 70.1727 130.488C70.2207 130.472 70.2687 130.464 70.3167 130.464C70.3807 130.464 70.4367 130.464 70.4847 130.464C70.7087 130.464 70.9247 130.504 71.1327 130.584C71.3407 130.664 71.5327 130.784 71.7087 130.944C71.8847 131.104 72.0127 131.272 72.0927 131.448C72.1887 131.608 72.2367 131.776 72.2367 131.952C72.2367 132.272 72.0847 132.584 71.7807 132.888C71.4927 133.176 71.0607 133.456 70.4847 133.728C69.8927 134 69.2687 134.224 68.6127 134.4C67.9567 134.56 67.2767 134.68 66.5727 134.76C66.4607 134.76 66.3407 134.76 66.2127 134.76C66.1007 134.776 65.9807 134.792 65.8527 134.808C65.7887 134.808 65.7247 134.808 65.6607 134.808C65.6127 134.808 65.5647 134.816 65.5167 134.832C65.4527 134.832 65.3967 134.832 65.3487 134.832C65.3007 134.832 65.2527 134.832 65.2047 134.832C63.9887 134.832 62.8927 134.68 61.9167 134.376C60.9407 134.072 60.0767 133.608 59.3247 132.984C58.5727 132.36 58.0127 131.656 57.6447 130.872C57.2767 130.072 57.0927 129.192 57.0927 128.232C57.0927 127.352 57.2687 126.528 57.6207 125.76C57.9887 124.976 58.5327 124.248 59.2527 123.576C59.9727 122.904 60.7967 122.4 61.7247 122.064C62.6687 121.712 63.7087 121.536 64.8447 121.536C65.8367 121.536 66.7487 121.672 67.5807 121.944C68.4287 122.216 69.1967 122.616 69.8847 123.144C70.5567 123.672 71.1087 124.232 71.5407 124.824C71.9727 125.4 72.2767 126.008 72.4527 126.648C72.4527 126.696 72.4527 126.744 72.4527 126.792C72.4687 126.84 72.4847 126.888 72.5007 126.936C72.5167 127 72.5247 127.056 72.5247 127.104C72.5407 127.152 72.5487 127.2 72.5487 127.248C72.5647 127.344 72.5727 127.44 72.5727 127.536C72.5887 127.632 72.5967 127.728 72.5967 127.824C72.5967 128.08 72.5567 128.304 72.4767 128.496C72.4127 128.688 72.3087 128.848 72.1647 128.976C72.0047 129.104 71.8047 129.2 71.5647 129.264C71.3247 129.328 71.0447 129.36 70.7247 129.36V129.336ZM61.4127 127.032H68.2767C68.2127 126.664 68.0927 126.328 67.9167 126.024C67.7407 125.72 67.5007 125.44 67.1967 125.184C66.8927 124.928 66.5487 124.736 66.1647 124.608C65.7807 124.48 65.3407 124.416 64.8447 124.416C64.3647 124.416 63.9247 124.48 63.5247 124.608C63.1247 124.736 62.7727 124.928 62.4687 125.184C62.1647 125.44 61.9247 125.728 61.7487 126.048C61.5727 126.352 61.4607 126.688 61.4127 127.056V127.032ZM88.8903 123.576V133.56C88.8903 134.584 88.6903 135.48 88.2903 136.248C87.9063 137.032 87.3383 137.688 86.5863 138.216C85.8023 138.728 84.9143 139.112 83.9223 139.368C82.9303 139.64 81.8183 139.776 80.5863 139.776C80.4103 139.776 80.2023 139.768 79.9622 139.752C79.7383 139.736 79.4903 139.712 79.2183 139.68C78.9463 139.664 78.6663 139.632 78.3783 139.584C78.0903 139.536 77.7943 139.48 77.4903 139.416C77.0103 139.32 76.5543 139.2 76.1223 139.056C75.7063 138.912 75.2983 138.752 74.8983 138.576C74.5143 138.4 74.2263 138.192 74.0343 137.952C73.8583 137.728 73.7703 137.472 73.7703 137.184C73.7703 137.152 73.7703 137.112 73.7703 137.064C73.7703 137.032 73.7783 137 73.7943 136.968C73.7943 136.936 73.8023 136.904 73.8183 136.872C73.8343 136.84 73.8503 136.808 73.8663 136.776C73.9303 136.648 74.0023 136.52 74.0823 136.392C74.1783 136.28 74.3063 136.168 74.4663 136.056C74.5943 135.944 74.7303 135.856 74.8743 135.792C75.0343 135.744 75.1943 135.704 75.3543 135.672C75.3543 135.672 75.3623 135.672 75.3783 135.672C75.3943 135.672 75.4103 135.672 75.4263 135.672C75.4423 135.672 75.4503 135.672 75.4503 135.672C75.4663 135.672 75.4823 135.672 75.4983 135.672C75.6743 135.672 75.8503 135.68 76.0263 135.696C76.2023 135.728 76.3783 135.776 76.5543 135.84C76.7303 135.888 76.9223 135.944 77.1303 136.008C77.3543 136.088 77.5703 136.16 77.7783 136.224C78.0023 136.288 78.2263 136.344 78.4503 136.392C78.6903 136.456 78.9383 136.52 79.1943 136.584C79.4503 136.632 79.7223 136.672 80.0103 136.704C80.2983 136.736 80.5943 136.752 80.8983 136.752C81.4263 136.752 81.9063 136.688 82.3383 136.56C82.7703 136.448 83.1623 136.272 83.5143 136.032C83.8663 135.792 84.1303 135.504 84.3063 135.168C84.4823 134.848 84.5703 134.48 84.5703 134.064V133.224H84.4983C84.2903 133.496 84.0343 133.736 83.7303 133.944C83.4423 134.152 83.1143 134.32 82.7463 134.448C82.3943 134.56 81.9943 134.648 81.5463 134.712C81.1143 134.792 80.6503 134.832 80.1543 134.832C79.0183 134.832 78.0263 134.672 77.1783 134.352C76.3463 134.016 75.6583 133.512 75.1143 132.84C74.5703 132.168 74.1623 131.456 73.8903 130.704C73.6343 129.936 73.5063 129.12 73.5063 128.256C73.5063 127.392 73.6663 126.576 73.9863 125.808C74.3063 125.024 74.7863 124.288 75.4263 123.6C76.0503 122.912 76.7943 122.4 77.6583 122.064C78.5383 121.712 79.5223 121.536 80.6103 121.536C80.6423 121.536 80.6743 121.536 80.7063 121.536C80.7383 121.536 80.7703 121.536 80.8023 121.536C80.8343 121.552 80.8663 121.56 80.8983 121.56C80.9463 121.56 80.9863 121.56 81.0183 121.56C81.0663 121.56 81.1063 121.56 81.1383 121.56C81.1863 121.56 81.2263 121.56 81.2583 121.56C81.2903 121.576 81.3223 121.584 81.3543 121.584C81.4023 121.584 81.4423 121.584 81.4743 121.584C81.7783 121.632 82.0743 121.704 82.3623 121.8C82.6663 121.88 82.9623 121.984 83.2503 122.112C83.5223 122.224 83.7703 122.368 83.9943 122.544C84.2183 122.704 84.4103 122.896 84.5703 123.12C84.6343 122.896 84.7223 122.696 84.8343 122.52C84.9622 122.328 85.1143 122.176 85.2903 122.064C85.4663 121.936 85.6743 121.84 85.9143 121.776C86.1543 121.712 86.4263 121.68 86.7303 121.68C87.0503 121.68 87.3383 121.728 87.5943 121.824C87.8503 121.904 88.0823 122.032 88.2903 122.208C88.4823 122.384 88.6263 122.592 88.7223 122.832C88.8343 123.056 88.8903 123.312 88.8903 123.6V123.576ZM84.5703 128.28C84.5703 128.264 84.5703 128.248 84.5703 128.232C84.5703 128.2 84.5703 128.176 84.5703 128.16C84.5543 128.128 84.5463 128.104 84.5463 128.088C84.5463 128.056 84.5463 128.032 84.5463 128.016C84.5463 127.968 84.5463 127.92 84.5463 127.872C84.5463 127.824 84.5463 127.776 84.5463 127.728C84.4823 127.36 84.3703 127 84.2103 126.648C84.0663 126.296 83.8583 125.968 83.5863 125.664C83.3143 125.344 82.9703 125.104 82.5543 124.944C82.1543 124.784 81.6983 124.704 81.1863 124.704C80.6903 124.704 80.2423 124.784 79.8423 124.944C79.4583 125.088 79.1303 125.312 78.8583 125.616C78.6023 125.92 78.3863 126.232 78.2103 126.552C78.0503 126.872 77.9383 127.216 77.8743 127.584C77.8743 127.6 77.8663 127.624 77.8503 127.656C77.8503 127.688 77.8503 127.712 77.8503 127.728C77.8343 127.76 77.8263 127.792 77.8263 127.824C77.8263 127.84 77.8263 127.864 77.8263 127.896C77.8263 127.944 77.8263 127.992 77.8263 128.04C77.8263 128.088 77.8263 128.136 77.8263 128.184C77.8263 128.648 77.8903 129.088 78.0183 129.504C78.1623 129.904 78.3783 130.288 78.6663 130.656C78.9383 131.008 79.2823 131.272 79.6983 131.448C80.1143 131.624 80.6103 131.712 81.1863 131.712C81.7463 131.712 82.2343 131.632 82.6503 131.472C83.0663 131.296 83.4023 131.04 83.6583 130.704C83.9303 130.368 84.1383 130.008 84.2823 129.624C84.4423 129.24 84.5383 128.848 84.5703 128.448C84.5703 128.432 84.5703 128.424 84.5703 128.424C84.5703 128.408 84.5703 128.392 84.5703 128.376C84.5703 128.36 84.5703 128.352 84.5703 128.352C84.5703 128.336 84.5703 128.32 84.5703 128.304V128.28ZM91.2614 132.792V123.384C91.2614 123.112 91.3174 122.88 91.4294 122.688C91.5414 122.48 91.7014 122.304 91.9094 122.16C92.1174 122.016 92.3414 121.904 92.5814 121.824C92.8214 121.744 93.0774 121.696 93.3494 121.68C93.3654 121.68 93.3814 121.68 93.3974 121.68C93.4134 121.68 93.4294 121.68 93.4454 121.68C93.4614 121.68 93.4694 121.68 93.4694 121.68C93.4854 121.68 93.4934 121.68 93.4934 121.68C93.7814 121.68 94.0454 121.712 94.2854 121.776C94.5254 121.824 94.7494 121.896 94.9574 121.992C95.1814 122.088 95.3414 122.232 95.4374 122.424C95.5334 122.616 95.5814 122.848 95.5814 123.12L95.6534 123.096C95.8454 122.872 96.0454 122.672 96.2534 122.496C96.4774 122.304 96.7094 122.152 96.9494 122.04C97.1894 121.912 97.4454 121.824 97.7174 121.776C98.0054 121.712 98.3254 121.68 98.6774 121.68C98.9334 121.68 99.1814 121.72 99.4214 121.8C99.6614 121.88 99.8934 121.992 100.117 122.136C100.341 122.296 100.509 122.488 100.621 122.712C100.733 122.936 100.789 123.208 100.789 123.528C100.789 123.736 100.749 123.912 100.669 124.056C100.589 124.2 100.477 124.32 100.333 124.416C100.173 124.512 100.005 124.6 99.8294 124.68C99.6534 124.744 99.4614 124.808 99.2534 124.872C99.2054 124.888 99.1574 124.904 99.1094 124.92C99.0774 124.936 99.0374 124.944 98.9894 124.944C98.9734 124.96 98.9574 124.968 98.9414 124.968C98.9414 124.968 98.9334 124.976 98.9174 124.992C98.8854 124.992 98.8534 125 98.8214 125.016C98.8054 125.016 98.7814 125.024 98.7494 125.04C98.7014 125.056 98.6534 125.072 98.6054 125.088C98.5574 125.104 98.5174 125.112 98.4854 125.112C98.4374 125.128 98.3894 125.144 98.3414 125.16C98.2934 125.176 98.2454 125.192 98.1974 125.208C98.1974 125.208 98.1894 125.208 98.1734 125.208C98.1574 125.224 98.1494 125.232 98.1494 125.232C98.1494 125.232 98.1414 125.232 98.1254 125.232C98.1254 125.232 98.1174 125.232 98.1014 125.232C97.7974 125.344 97.5014 125.472 97.2134 125.616C96.9254 125.76 96.6454 125.904 96.3734 126.048C96.1014 126.208 95.9014 126.408 95.7734 126.648C95.6454 126.888 95.5814 127.176 95.5814 127.512V132.792C95.5814 133.096 95.5334 133.368 95.4374 133.608C95.3414 133.832 95.1894 134.032 94.9814 134.208C94.7734 134.368 94.5414 134.488 94.2854 134.568C94.0294 134.648 93.7414 134.688 93.4214 134.688C93.1174 134.688 92.8374 134.648 92.5814 134.568C92.3254 134.488 92.0854 134.368 91.8614 134.208C91.6534 134.032 91.5014 133.832 91.4054 133.608C91.3094 133.368 91.2614 133.104 91.2614 132.816V132.792ZM101.246 132.792V123.576C101.246 123.304 101.294 123.056 101.39 122.832C101.486 122.592 101.638 122.384 101.846 122.208C102.07 122.032 102.31 121.904 102.566 121.824C102.822 121.728 103.102 121.68 103.406 121.68C103.726 121.68 104.014 121.728 104.27 121.824C104.526 121.904 104.758 122.032 104.966 122.208C105.174 122.384 105.326 122.592 105.422 122.832C105.518 123.056 105.566 123.312 105.566 123.6V132.792C105.566 133.096 105.518 133.368 105.422 133.608C105.326 133.832 105.174 134.032 104.966 134.208C104.758 134.368 104.526 134.488 104.27 134.568C104.014 134.648 103.726 134.688 103.406 134.688C103.102 134.688 102.822 134.648 102.566 134.568C102.31 134.488 102.07 134.368 101.846 134.208C101.638 134.032 101.486 133.832 101.39 133.608C101.294 133.368 101.246 133.104 101.246 132.816V132.792ZM103.406 116.472C103.726 116.488 104.022 116.544 104.294 116.64C104.582 116.736 104.846 116.88 105.086 117.072C105.326 117.264 105.51 117.472 105.638 117.696C105.782 117.904 105.854 118.136 105.854 118.392C105.854 118.664 105.79 118.92 105.662 119.16C105.55 119.4 105.374 119.616 105.134 119.808C104.894 120 104.63 120.144 104.342 120.24C104.054 120.336 103.742 120.384 103.406 120.384C103.086 120.384 102.782 120.336 102.494 120.24C102.206 120.144 101.942 119.992 101.702 119.784C101.462 119.592 101.278 119.376 101.15 119.136C101.038 118.896 100.982 118.648 100.982 118.392C100.982 118.152 101.038 117.92 101.15 117.696C101.278 117.472 101.462 117.264 101.702 117.072C101.942 116.88 102.206 116.736 102.494 116.64C102.782 116.544 103.086 116.496 103.406 116.496V116.472ZM109.03 132.792V124.824H108.07C107.766 124.84 107.502 124.816 107.278 124.752C107.054 124.688 106.878 124.584 106.75 124.44C106.574 124.312 106.446 124.16 106.366 123.984C106.286 123.792 106.246 123.576 106.246 123.336C106.246 123.112 106.294 122.912 106.39 122.736C106.47 122.56 106.59 122.4 106.75 122.256C106.91 122.112 107.102 122.008 107.326 121.944C107.55 121.864 107.798 121.824 108.07 121.824L109.03 121.8V119.736C109.03 119.464 109.078 119.216 109.174 118.992C109.27 118.752 109.422 118.544 109.63 118.368C109.838 118.192 110.07 118.064 110.326 117.984C110.582 117.888 110.87 117.84 111.19 117.84C111.51 117.84 111.798 117.888 112.054 117.984C112.31 118.064 112.542 118.192 112.75 118.368C112.942 118.544 113.086 118.752 113.182 118.992C113.294 119.216 113.35 119.472 113.35 119.76V121.8H114.574C114.846 121.816 115.102 121.856 115.342 121.92C115.582 121.968 115.806 122.048 116.014 122.16C116.222 122.272 116.374 122.432 116.47 122.64C116.582 122.832 116.638 123.064 116.638 123.336C116.638 123.608 116.582 123.84 116.47 124.032C116.374 124.224 116.222 124.384 116.014 124.512C115.806 124.624 115.582 124.712 115.342 124.776C115.102 124.824 114.846 124.848 114.574 124.848L113.35 124.824V132.792C113.35 133.096 113.294 133.368 113.182 133.608C113.086 133.832 112.942 134.032 112.75 134.208C112.542 134.368 112.31 134.488 112.054 134.568C111.798 134.648 111.51 134.688 111.19 134.688C110.87 134.688 110.582 134.648 110.326 134.568C110.07 134.488 109.838 134.368 109.63 134.208C109.422 134.032 109.27 133.832 109.174 133.608C109.078 133.368 109.03 133.104 109.03 132.816V132.792ZM120.553 133.56L115.777 124.032C115.745 123.984 115.713 123.928 115.681 123.864C115.665 123.784 115.649 123.712 115.633 123.648C115.633 123.616 115.633 123.584 115.633 123.552C115.633 123.504 115.633 123.464 115.633 123.432C115.633 123.384 115.633 123.344 115.633 123.312C115.633 123.264 115.633 123.216 115.633 123.168C115.633 122.992 115.665 122.832 115.729 122.688C115.793 122.528 115.897 122.384 116.041 122.256C116.201 122.128 116.369 122.024 116.545 121.944C116.721 121.848 116.913 121.776 117.121 121.728C117.137 121.728 117.153 121.728 117.169 121.728C117.185 121.728 117.209 121.72 117.241 121.704C117.257 121.704 117.273 121.704 117.289 121.704C117.321 121.704 117.345 121.704 117.361 121.704C117.377 121.704 117.393 121.704 117.409 121.704C117.425 121.704 117.449 121.696 117.481 121.68C117.497 121.68 117.513 121.68 117.529 121.68C117.561 121.68 117.585 121.68 117.601 121.68C117.857 121.68 118.097 121.712 118.321 121.776C118.545 121.824 118.745 121.904 118.921 122.016C119.097 122.128 119.257 122.256 119.401 122.4C119.561 122.544 119.681 122.712 119.761 122.904L122.737 129.384L125.905 122.88C126.001 122.704 126.113 122.544 126.241 122.4C126.385 122.256 126.545 122.128 126.721 122.016C126.897 121.904 127.097 121.824 127.321 121.776C127.561 121.712 127.809 121.68 128.065 121.68C128.081 121.68 128.097 121.68 128.113 121.68C128.145 121.68 128.169 121.68 128.185 121.68C128.201 121.696 128.217 121.704 128.233 121.704C128.265 121.704 128.289 121.704 128.305 121.704C128.321 121.704 128.337 121.704 128.353 121.704C128.385 121.704 128.409 121.704 128.425 121.704C128.441 121.72 128.457 121.728 128.473 121.728C128.505 121.728 128.529 121.728 128.545 121.728C128.753 121.776 128.945 121.848 129.121 121.944C129.297 122.024 129.465 122.128 129.625 122.256C129.785 122.384 129.905 122.528 129.985 122.688C130.065 122.832 130.105 122.992 130.105 123.168C130.105 123.264 130.097 123.352 130.081 123.432C130.081 123.496 130.073 123.568 130.057 123.648C130.057 123.696 130.041 123.744 130.009 123.792C129.993 123.84 129.977 123.888 129.961 123.936C129.961 123.952 129.953 123.976 129.937 124.008C129.937 124.024 129.929 124.04 129.913 124.056L122.665 138.432C122.585 138.592 122.481 138.752 122.353 138.912C122.225 139.072 122.073 139.224 121.897 139.368C121.737 139.496 121.553 139.592 121.345 139.656C121.137 139.736 120.897 139.776 120.625 139.776C120.257 139.776 119.929 139.736 119.641 139.656C119.353 139.576 119.121 139.456 118.945 139.296C118.753 139.136 118.609 138.968 118.513 138.792C118.433 138.632 118.393 138.464 118.393 138.288C118.393 138.272 118.393 138.256 118.393 138.24C118.393 138.224 118.393 138.216 118.393 138.216C118.393 138.2 118.393 138.184 118.393 138.168C118.393 138.152 118.393 138.136 118.393 138.12C118.393 138.104 118.393 138.088 118.393 138.072C118.393 138.056 118.401 138.04 118.417 138.024C118.417 138.008 118.417 137.992 118.417 137.976C118.417 137.976 118.417 137.968 118.417 137.952C118.417 137.888 118.425 137.824 118.441 137.76C118.457 137.712 118.481 137.664 118.513 137.616C118.529 137.6 118.537 137.576 118.537 137.544C118.537 137.528 118.545 137.512 118.561 137.496C118.577 137.464 118.593 137.424 118.609 137.376C118.625 137.344 118.641 137.312 118.657 137.28L120.553 133.56Z" fill="white"/>
<path d="M131.639 135H129.483L134.791 118.605H136.655L139.326 129.598L145.104 118.605H147.073L147.506 135H145.444L145.151 122.613L138.553 135L135.6 122.613L131.639 135ZM158.252 131.836L157.912 134.016C157.287 134.43 156.67 134.738 156.061 134.941C155.459 135.137 154.854 135.234 154.244 135.234C152.885 135.234 151.768 134.758 150.893 133.805C150.026 132.852 149.592 131.625 149.592 130.125C149.592 128.328 150.084 126.844 151.069 125.672C152.061 124.5 153.311 123.914 154.819 123.914C156.069 123.914 157.026 124.281 157.69 125.016C158.354 125.742 158.686 126.789 158.686 128.156V129.387H151.842L151.795 130.102V130.371C151.795 131.254 152.049 131.992 152.557 132.586C153.065 133.172 153.69 133.465 154.432 133.465C155.018 133.465 155.612 133.336 156.213 133.078C156.823 132.82 157.502 132.406 158.252 131.836ZM152.182 127.875H156.74V127.582C156.74 126.973 156.573 126.488 156.237 126.129C155.901 125.77 155.444 125.59 154.865 125.59C154.186 125.59 153.627 125.777 153.19 126.152C152.76 126.52 152.424 127.094 152.182 127.875ZM162.213 135H160.198L161.815 124.172H163.83L163.537 126.211C164.069 125.383 164.545 124.809 164.967 124.488C165.389 124.168 165.858 124.008 166.373 124.008C166.506 124.008 166.647 124.023 166.795 124.055C166.951 124.086 167.115 124.133 167.287 124.195L166.748 126.141C166.639 126.117 166.533 126.102 166.432 126.094C166.338 126.078 166.244 126.07 166.151 126.07C165.549 126.07 165.006 126.297 164.522 126.75C164.037 127.195 163.573 127.906 163.127 128.883L162.213 135ZM169.819 120.82C169.819 120.5 169.928 120.23 170.147 120.012C170.373 119.793 170.647 119.684 170.967 119.684C171.28 119.684 171.545 119.797 171.764 120.023C171.983 120.242 172.092 120.508 172.092 120.82C172.092 121.133 171.983 121.398 171.764 121.617C171.545 121.836 171.28 121.945 170.967 121.945C170.639 121.945 170.365 121.84 170.147 121.629C169.928 121.41 169.819 121.141 169.819 120.82ZM169.959 135H167.873L169.455 124.172H171.541L169.959 135ZM176.428 130.418C176.365 130.762 176.319 131.055 176.287 131.297C176.256 131.539 176.24 131.75 176.24 131.93C176.24 132.383 176.35 132.723 176.569 132.949C176.795 133.168 177.135 133.277 177.588 133.277C177.846 133.277 178.127 133.227 178.432 133.125C178.744 133.016 179.069 132.855 179.405 132.645V134.543C178.944 134.777 178.51 134.949 178.104 135.059C177.698 135.176 177.315 135.234 176.955 135.234C176.088 135.234 175.381 134.969 174.834 134.438C174.295 133.898 174.026 133.191 174.026 132.316C174.026 132.082 174.045 131.82 174.084 131.531C174.123 131.242 174.194 130.855 174.295 130.371L175.256 125.707H173.428L173.768 124.172H175.619L176.147 121.898H178.28L177.776 124.172H179.908L179.557 125.707H177.412L176.428 130.418Z" fill="white"/>
<path d="M0.791016 152V144.842H5.9668V145.687H1.73828V147.879H5.69824V148.719H1.73828V151.155H6.13281V152H0.791016ZM7.3291 152V146.814H8.11523V147.542C8.27799 147.288 8.49447 147.085 8.76465 146.932C9.03483 146.775 9.34245 146.697 9.6875 146.697C10.0716 146.697 10.3857 146.777 10.6299 146.937C10.8773 147.096 11.0514 147.319 11.1523 147.605C11.5625 147 12.0964 146.697 12.7539 146.697C13.2682 146.697 13.6637 146.84 13.9404 147.127C14.2171 147.41 14.3555 147.848 14.3555 148.44V152H13.4814V148.733C13.4814 148.382 13.4521 148.13 13.3936 147.977C13.3382 147.82 13.2357 147.695 13.0859 147.601C12.9362 147.506 12.7604 147.459 12.5586 147.459C12.194 147.459 11.8913 147.581 11.6504 147.825C11.4095 148.066 11.2891 148.453 11.2891 148.987V152H10.4102V148.631C10.4102 148.24 10.3385 147.947 10.1953 147.752C10.0521 147.557 9.81771 147.459 9.49219 147.459C9.24479 147.459 9.0153 147.524 8.80371 147.654C8.59538 147.785 8.44401 147.975 8.34961 148.226C8.25521 148.476 8.20801 148.838 8.20801 149.31V152H7.3291ZM15.6592 153.987V146.814H16.46V147.488C16.6488 147.225 16.862 147.028 17.0996 146.897C17.3372 146.764 17.6253 146.697 17.9639 146.697C18.4066 146.697 18.7972 146.811 19.1357 147.039C19.4743 147.267 19.7298 147.589 19.9023 148.006C20.0749 148.419 20.1611 148.873 20.1611 149.368C20.1611 149.899 20.0651 150.377 19.873 150.804C19.6842 151.227 19.4076 151.552 19.043 151.78C18.6816 152.005 18.3008 152.117 17.9004 152.117C17.6074 152.117 17.3438 152.055 17.1094 151.932C16.8783 151.808 16.6878 151.652 16.5381 151.463V153.987H15.6592ZM16.4551 149.437C16.4551 150.104 16.5902 150.597 16.8604 150.916C17.1305 151.235 17.4577 151.395 17.8418 151.395C18.2324 151.395 18.5661 151.23 18.8428 150.901C19.1227 150.569 19.2627 150.057 19.2627 149.363C19.2627 148.702 19.126 148.208 18.8525 147.879C18.5824 147.55 18.2585 147.386 17.8809 147.386C17.5065 147.386 17.1745 147.562 16.8848 147.913C16.5983 148.261 16.4551 148.769 16.4551 149.437ZM20.8984 149.407C20.8984 148.447 21.1654 147.736 21.6992 147.273C22.1452 146.889 22.6888 146.697 23.3301 146.697C24.043 146.697 24.6257 146.932 25.0781 147.4C25.5306 147.866 25.7568 148.51 25.7568 149.334C25.7568 150.001 25.6559 150.527 25.4541 150.911C25.2555 151.292 24.9642 151.588 24.5801 151.8C24.1992 152.011 23.7826 152.117 23.3301 152.117C22.6042 152.117 22.0166 151.884 21.5674 151.419C21.1214 150.953 20.8984 150.283 20.8984 149.407ZM21.8018 149.407C21.8018 150.071 21.9466 150.569 22.2363 150.901C22.526 151.23 22.8906 151.395 23.3301 151.395C23.7663 151.395 24.1292 151.229 24.4189 150.896C24.7087 150.564 24.8535 150.058 24.8535 149.378C24.8535 148.737 24.707 148.252 24.4141 147.923C24.1243 147.591 23.763 147.425 23.3301 147.425C22.8906 147.425 22.526 147.589 22.2363 147.918C21.9466 148.247 21.8018 148.743 21.8018 149.407ZM27.749 152L26.1621 146.814H27.0703L27.8955 149.808L28.2031 150.921C28.2161 150.866 28.3057 150.509 28.4717 149.852L29.2969 146.814H30.2002L30.9766 149.822L31.2354 150.813L31.5332 149.812L32.4219 146.814H33.2764L31.6553 152H30.7422L29.917 148.895L29.7168 148.011L28.667 152H27.749ZM37.5684 150.33L38.4766 150.442C38.3333 150.973 38.068 151.385 37.6807 151.678C37.2933 151.971 36.7985 152.117 36.1963 152.117C35.4378 152.117 34.8356 151.884 34.3896 151.419C33.9469 150.95 33.7256 150.294 33.7256 149.451C33.7256 148.579 33.9502 147.902 34.3994 147.42C34.8486 146.938 35.4313 146.697 36.1475 146.697C36.8408 146.697 37.4072 146.933 37.8467 147.405C38.2861 147.877 38.5059 148.541 38.5059 149.397C38.5059 149.45 38.5042 149.528 38.501 149.632H34.6338C34.6663 150.201 34.8275 150.638 35.1172 150.94C35.4069 151.243 35.7682 151.395 36.2012 151.395C36.5234 151.395 36.7985 151.31 37.0264 151.141C37.2542 150.971 37.4349 150.701 37.5684 150.33ZM34.6826 148.909H37.5781C37.5391 148.473 37.4284 148.146 37.2461 147.928C36.9661 147.589 36.6032 147.42 36.1572 147.42C35.7536 147.42 35.4134 147.555 35.1367 147.825C34.8633 148.095 34.7119 148.457 34.6826 148.909ZM39.5752 152V146.814H40.3662V147.601C40.568 147.233 40.7536 146.99 40.9229 146.873C41.0954 146.756 41.2842 146.697 41.4893 146.697C41.7855 146.697 42.0866 146.792 42.3926 146.98L42.0898 147.796C41.875 147.669 41.6602 147.605 41.4453 147.605C41.2533 147.605 41.0807 147.664 40.9277 147.781C40.7747 147.895 40.6657 148.055 40.6006 148.26C40.5029 148.572 40.4541 148.914 40.4541 149.285V152H39.5752ZM42.9199 145.853V144.842H43.7988V145.853H42.9199ZM42.9199 152V146.814H43.7988V152H42.9199ZM45.1416 152V146.814H45.9326V147.552C46.3135 146.982 46.8636 146.697 47.583 146.697C47.8955 146.697 48.182 146.754 48.4424 146.868C48.7061 146.979 48.903 147.125 49.0332 147.308C49.1634 147.49 49.2546 147.706 49.3066 147.957C49.3392 148.12 49.3555 148.405 49.3555 148.812V152H48.4766V148.846C48.4766 148.488 48.4424 148.221 48.374 148.045C48.3057 147.866 48.1836 147.724 48.0078 147.62C47.8353 147.513 47.6318 147.459 47.3975 147.459C47.0231 147.459 46.6992 147.578 46.4258 147.815C46.1556 148.053 46.0205 148.504 46.0205 149.168V152H45.1416ZM50.5469 152.43L51.4014 152.557C51.4372 152.82 51.5365 153.012 51.6992 153.133C51.9173 153.296 52.2152 153.377 52.5928 153.377C52.9997 153.377 53.3138 153.296 53.5352 153.133C53.7565 152.97 53.9062 152.742 53.9844 152.449C54.0299 152.27 54.0511 151.894 54.0479 151.321C53.6637 151.774 53.1852 152 52.6123 152C51.8994 152 51.3477 151.743 50.957 151.229C50.5664 150.714 50.3711 150.097 50.3711 149.378C50.3711 148.883 50.4606 148.427 50.6396 148.011C50.8187 147.591 51.0775 147.267 51.416 147.039C51.7578 146.811 52.1582 146.697 52.6172 146.697C53.2292 146.697 53.7337 146.945 54.1309 147.439V146.814H54.9414V151.297C54.9414 152.104 54.8584 152.675 54.6924 153.011C54.5296 153.349 54.2692 153.616 53.9111 153.812C53.5563 154.007 53.1185 154.104 52.5977 154.104C51.9792 154.104 51.4795 153.965 51.0986 153.685C50.7178 153.408 50.5339 152.99 50.5469 152.43ZM51.2744 149.314C51.2744 149.995 51.4095 150.491 51.6797 150.804C51.9499 151.116 52.2884 151.272 52.6953 151.272C53.099 151.272 53.4375 151.118 53.7109 150.809C53.9844 150.496 54.1211 150.008 54.1211 149.344C54.1211 148.709 53.9795 148.23 53.6963 147.908C53.4163 147.586 53.0778 147.425 52.6807 147.425C52.29 147.425 51.958 147.584 51.6846 147.903C51.4111 148.219 51.2744 148.689 51.2744 149.314ZM59.1895 152V144.842H64.3652V145.687H60.1367V147.879H64.0967V148.719H60.1367V151.155H64.5312V152H59.1895ZM65.1416 152L67.0361 149.305L65.2832 146.814H66.3818L67.1777 148.03C67.3275 148.261 67.4479 148.455 67.5391 148.611C67.6823 148.396 67.8141 148.206 67.9346 148.04L68.8086 146.814H69.8584L68.0664 149.256L69.9951 152H68.916L67.8516 150.389L67.5684 149.954L66.2061 152H65.1416ZM74.1113 150.101L74.9756 150.213C74.8812 150.809 74.6387 151.276 74.248 151.614C73.8607 151.95 73.3838 152.117 72.8174 152.117C72.1077 152.117 71.5365 151.886 71.1035 151.424C70.6738 150.958 70.459 150.293 70.459 149.427C70.459 148.867 70.5518 148.377 70.7373 147.957C70.9229 147.537 71.2044 147.223 71.582 147.015C71.9629 146.803 72.3763 146.697 72.8223 146.697C73.3854 146.697 73.846 146.84 74.2041 147.127C74.5622 147.41 74.7917 147.814 74.8926 148.338L74.0381 148.47C73.9567 148.121 73.8118 147.859 73.6035 147.684C73.3984 147.508 73.1494 147.42 72.8564 147.42C72.4137 147.42 72.054 147.579 71.7773 147.898C71.5007 148.214 71.3623 148.715 71.3623 149.402C71.3623 150.099 71.4958 150.605 71.7627 150.921C72.0296 151.237 72.3779 151.395 72.8076 151.395C73.1527 151.395 73.4408 151.289 73.6719 151.077C73.903 150.866 74.0495 150.54 74.1113 150.101ZM79.2773 150.33L80.1855 150.442C80.0423 150.973 79.777 151.385 79.3896 151.678C79.0023 151.971 78.5075 152.117 77.9053 152.117C77.1468 152.117 76.5446 151.884 76.0986 151.419C75.6559 150.95 75.4346 150.294 75.4346 149.451C75.4346 148.579 75.6592 147.902 76.1084 147.42C76.5576 146.938 77.1403 146.697 77.8564 146.697C78.5498 146.697 79.1162 146.933 79.5557 147.405C79.9951 147.877 80.2148 148.541 80.2148 149.397C80.2148 149.45 80.2132 149.528 80.21 149.632H76.3428C76.3753 150.201 76.5365 150.638 76.8262 150.94C77.1159 151.243 77.4772 151.395 77.9102 151.395C78.2324 151.395 78.5075 151.31 78.7354 151.141C78.9632 150.971 79.1439 150.701 79.2773 150.33ZM76.3916 148.909H79.2871C79.248 148.473 79.1374 148.146 78.9551 147.928C78.6751 147.589 78.3122 147.42 77.8662 147.42C77.4626 147.42 77.1224 147.555 76.8457 147.825C76.5723 148.095 76.4209 148.457 76.3916 148.909ZM81.2744 152V144.842H82.1533V152H81.2744ZM83.501 152V144.842H84.3799V152H83.501ZM89.2969 150.33L90.2051 150.442C90.0618 150.973 89.7965 151.385 89.4092 151.678C89.0218 151.971 88.527 152.117 87.9248 152.117C87.1663 152.117 86.5641 151.884 86.1182 151.419C85.6755 150.95 85.4541 150.294 85.4541 149.451C85.4541 148.579 85.6787 147.902 86.1279 147.42C86.5771 146.938 87.1598 146.697 87.876 146.697C88.5693 146.697 89.1357 146.933 89.5752 147.405C90.0146 147.877 90.2344 148.541 90.2344 149.397C90.2344 149.45 90.2327 149.528 90.2295 149.632H86.3623C86.3949 150.201 86.556 150.638 86.8457 150.94C87.1354 151.243 87.4967 151.395 87.9297 151.395C88.252 151.395 88.527 151.31 88.7549 151.141C88.9827 150.971 89.1634 150.701 89.2969 150.33ZM86.4111 148.909H89.3066C89.2676 148.473 89.1569 148.146 88.9746 147.928C88.6947 147.589 88.3317 147.42 87.8857 147.42C87.4821 147.42 87.1419 147.555 86.8652 147.825C86.5918 148.095 86.4404 148.457 86.4111 148.909ZM91.3135 152V146.814H92.1045V147.552C92.4854 146.982 93.0355 146.697 93.7549 146.697C94.0674 146.697 94.3538 146.754 94.6143 146.868C94.8779 146.979 95.0749 147.125 95.2051 147.308C95.3353 147.49 95.4264 147.706 95.4785 147.957C95.5111 148.12 95.5273 148.405 95.5273 148.812V152H94.6484V148.846C94.6484 148.488 94.6143 148.221 94.5459 148.045C94.4775 147.866 94.3555 147.724 94.1797 147.62C94.0072 147.513 93.8037 147.459 93.5693 147.459C93.195 147.459 92.8711 147.578 92.5977 147.815C92.3275 148.053 92.1924 148.504 92.1924 149.168V152H91.3135ZM100.264 150.101L101.128 150.213C101.034 150.809 100.791 151.276 100.4 151.614C100.013 151.95 99.5361 152.117 98.9697 152.117C98.2601 152.117 97.6888 151.886 97.2559 151.424C96.8262 150.958 96.6113 150.293 96.6113 149.427C96.6113 148.867 96.7041 148.377 96.8896 147.957C97.0752 147.537 97.3568 147.223 97.7344 147.015C98.1152 146.803 98.5286 146.697 98.9746 146.697C99.5378 146.697 99.9984 146.84 100.356 147.127C100.715 147.41 100.944 147.814 101.045 148.338L100.19 148.47C100.109 148.121 99.9642 147.859 99.7559 147.684C99.5508 147.508 99.3018 147.42 99.0088 147.42C98.5661 147.42 98.2064 147.579 97.9297 147.898C97.653 148.214 97.5146 148.715 97.5146 149.402C97.5146 150.099 97.6481 150.605 97.915 150.921C98.182 151.237 98.5303 151.395 98.96 151.395C99.305 151.395 99.5931 151.289 99.8242 151.077C100.055 150.866 100.202 150.54 100.264 150.101ZM105.43 150.33L106.338 150.442C106.195 150.973 105.929 151.385 105.542 151.678C105.155 151.971 104.66 152.117 104.058 152.117C103.299 152.117 102.697 151.884 102.251 151.419C101.808 150.95 101.587 150.294 101.587 149.451C101.587 148.579 101.812 147.902 102.261 147.42C102.71 146.938 103.293 146.697 104.009 146.697C104.702 146.697 105.269 146.933 105.708 147.405C106.147 147.877 106.367 148.541 106.367 149.397C106.367 149.45 106.366 149.528 106.362 149.632H102.495C102.528 150.201 102.689 150.638 102.979 150.94C103.268 151.243 103.63 151.395 104.062 151.395C104.385 151.395 104.66 151.31 104.888 151.141C105.116 150.971 105.296 150.701 105.43 150.33ZM102.544 148.909H105.439C105.4 148.473 105.29 148.146 105.107 147.928C104.827 147.589 104.465 147.42 104.019 147.42C103.615 147.42 103.275 147.555 102.998 147.825C102.725 148.095 102.573 148.457 102.544 148.909ZM107.676 152V150.999H108.677V152C108.677 152.368 108.612 152.664 108.481 152.889C108.351 153.117 108.145 153.292 107.861 153.416L107.617 153.04C107.803 152.959 107.939 152.838 108.027 152.679C108.115 152.522 108.164 152.296 108.174 152H107.676ZM113.14 152V144.842H116.313C116.951 144.842 117.437 144.907 117.769 145.037C118.101 145.164 118.366 145.39 118.564 145.716C118.763 146.041 118.862 146.401 118.862 146.795C118.862 147.303 118.698 147.731 118.369 148.079C118.04 148.427 117.533 148.649 116.846 148.743C117.096 148.864 117.287 148.982 117.417 149.1C117.694 149.354 117.956 149.671 118.203 150.052L119.448 152H118.257L117.31 150.511C117.033 150.081 116.805 149.752 116.626 149.524C116.447 149.297 116.286 149.137 116.143 149.046C116.003 148.955 115.859 148.891 115.713 148.855C115.605 148.833 115.43 148.821 115.186 148.821H114.087V152H113.14ZM114.087 148.001H116.123C116.556 148.001 116.895 147.957 117.139 147.869C117.383 147.778 117.568 147.635 117.695 147.439C117.822 147.241 117.886 147.026 117.886 146.795C117.886 146.456 117.762 146.178 117.515 145.96C117.271 145.742 116.883 145.633 116.353 145.633H114.087V148.001ZM123.789 150.33L124.697 150.442C124.554 150.973 124.289 151.385 123.901 151.678C123.514 151.971 123.019 152.117 122.417 152.117C121.659 152.117 121.056 151.884 120.61 151.419C120.168 150.95 119.946 150.294 119.946 149.451C119.946 148.579 120.171 147.902 120.62 147.42C121.069 146.938 121.652 146.697 122.368 146.697C123.062 146.697 123.628 146.933 124.067 147.405C124.507 147.877 124.727 148.541 124.727 149.397C124.727 149.45 124.725 149.528 124.722 149.632H120.854C120.887 150.201 121.048 150.638 121.338 150.94C121.628 151.243 121.989 151.395 122.422 151.395C122.744 151.395 123.019 151.31 123.247 151.141C123.475 150.971 123.656 150.701 123.789 150.33ZM120.903 148.909H123.799C123.76 148.473 123.649 148.146 123.467 147.928C123.187 147.589 122.824 147.42 122.378 147.42C121.974 147.42 121.634 147.555 121.357 147.825C121.084 148.095 120.933 148.457 120.903 148.909ZM126.763 152L125.176 146.814H126.084L126.909 149.808L127.217 150.921C127.23 150.866 127.319 150.509 127.485 149.852L128.311 146.814H129.214L129.99 149.822L130.249 150.813L130.547 149.812L131.436 146.814H132.29L130.669 152H129.756L128.931 148.895L128.73 148.011L127.681 152H126.763ZM136.416 151.36C136.09 151.637 135.776 151.832 135.474 151.946C135.174 152.06 134.852 152.117 134.507 152.117C133.937 152.117 133.499 151.979 133.193 151.702C132.887 151.422 132.734 151.066 132.734 150.633C132.734 150.379 132.791 150.148 132.905 149.939C133.022 149.728 133.174 149.559 133.359 149.432C133.548 149.305 133.76 149.209 133.994 149.144C134.167 149.098 134.427 149.054 134.775 149.012C135.485 148.927 136.007 148.826 136.343 148.709C136.346 148.589 136.348 148.512 136.348 148.479C136.348 148.121 136.265 147.869 136.099 147.723C135.874 147.524 135.54 147.425 135.098 147.425C134.684 147.425 134.378 147.498 134.18 147.645C133.984 147.788 133.84 148.043 133.745 148.411L132.886 148.294C132.964 147.926 133.092 147.63 133.271 147.405C133.451 147.177 133.709 147.003 134.048 146.883C134.386 146.759 134.779 146.697 135.225 146.697C135.667 146.697 136.027 146.749 136.304 146.854C136.58 146.958 136.784 147.09 136.914 147.249C137.044 147.405 137.135 147.604 137.188 147.845C137.217 147.994 137.231 148.265 137.231 148.655V149.827C137.231 150.644 137.249 151.162 137.285 151.38C137.324 151.595 137.399 151.801 137.51 152H136.592C136.501 151.818 136.442 151.604 136.416 151.36ZM136.343 149.397C136.024 149.528 135.545 149.638 134.907 149.729C134.546 149.782 134.29 149.84 134.141 149.905C133.991 149.97 133.875 150.066 133.794 150.193C133.713 150.317 133.672 150.455 133.672 150.608C133.672 150.843 133.76 151.038 133.936 151.194C134.115 151.351 134.375 151.429 134.717 151.429C135.055 151.429 135.356 151.355 135.62 151.209C135.884 151.059 136.077 150.856 136.201 150.599C136.296 150.4 136.343 150.107 136.343 149.72V149.397ZM138.589 152V146.814H139.38V147.601C139.582 147.233 139.767 146.99 139.937 146.873C140.109 146.756 140.298 146.697 140.503 146.697C140.799 146.697 141.1 146.792 141.406 146.98L141.104 147.796C140.889 147.669 140.674 147.605 140.459 147.605C140.267 147.605 140.094 147.664 139.941 147.781C139.788 147.895 139.679 148.055 139.614 148.26C139.517 148.572 139.468 148.914 139.468 149.285V152H138.589ZM145.293 152V151.346C144.964 151.86 144.481 152.117 143.843 152.117C143.429 152.117 143.049 152.003 142.7 151.775C142.355 151.548 142.087 151.23 141.895 150.823C141.706 150.413 141.611 149.943 141.611 149.412C141.611 148.895 141.698 148.426 141.87 148.006C142.043 147.583 142.301 147.259 142.646 147.034C142.992 146.81 143.377 146.697 143.804 146.697C144.116 146.697 144.395 146.764 144.639 146.897C144.883 147.028 145.081 147.199 145.234 147.41V144.842H146.108V152H145.293ZM142.515 149.412C142.515 150.076 142.655 150.573 142.935 150.901C143.215 151.23 143.545 151.395 143.926 151.395C144.31 151.395 144.635 151.238 144.902 150.926C145.173 150.61 145.308 150.13 145.308 149.485C145.308 148.776 145.171 148.255 144.897 147.923C144.624 147.591 144.287 147.425 143.887 147.425C143.496 147.425 143.169 147.584 142.905 147.903C142.645 148.222 142.515 148.725 142.515 149.412ZM147.5 145.853V144.842H148.379V145.853H147.5ZM147.5 152V146.814H148.379V152H147.5ZM149.722 152V146.814H150.513V147.552C150.894 146.982 151.444 146.697 152.163 146.697C152.476 146.697 152.762 146.754 153.022 146.868C153.286 146.979 153.483 147.125 153.613 147.308C153.743 147.49 153.835 147.706 153.887 147.957C153.919 148.12 153.936 148.405 153.936 148.812V152H153.057V148.846C153.057 148.488 153.022 148.221 152.954 148.045C152.886 147.866 152.764 147.724 152.588 147.62C152.415 147.513 152.212 147.459 151.978 147.459C151.603 147.459 151.279 147.578 151.006 147.815C150.736 148.053 150.601 148.504 150.601 149.168V152H149.722ZM155.127 152.43L155.981 152.557C156.017 152.82 156.117 153.012 156.279 153.133C156.497 153.296 156.795 153.377 157.173 153.377C157.58 153.377 157.894 153.296 158.115 153.133C158.337 152.97 158.486 152.742 158.564 152.449C158.61 152.27 158.631 151.894 158.628 151.321C158.244 151.774 157.765 152 157.192 152C156.479 152 155.928 151.743 155.537 151.229C155.146 150.714 154.951 150.097 154.951 149.378C154.951 148.883 155.041 148.427 155.22 148.011C155.399 147.591 155.658 147.267 155.996 147.039C156.338 146.811 156.738 146.697 157.197 146.697C157.809 146.697 158.314 146.945 158.711 147.439V146.814H159.521V151.297C159.521 152.104 159.438 152.675 159.272 153.011C159.11 153.349 158.849 153.616 158.491 153.812C158.136 154.007 157.699 154.104 157.178 154.104C156.559 154.104 156.06 153.965 155.679 153.685C155.298 153.408 155.114 152.99 155.127 152.43ZM155.854 149.314C155.854 149.995 155.99 150.491 156.26 150.804C156.53 151.116 156.868 151.272 157.275 151.272C157.679 151.272 158.018 151.118 158.291 150.809C158.564 150.496 158.701 150.008 158.701 149.344C158.701 148.709 158.56 148.23 158.276 147.908C157.996 147.586 157.658 147.425 157.261 147.425C156.87 147.425 156.538 147.584 156.265 147.903C155.991 148.219 155.854 148.689 155.854 149.314ZM163.911 152V144.842H164.858V152H163.911ZM166.421 152V146.814H167.212V147.552C167.593 146.982 168.143 146.697 168.862 146.697C169.175 146.697 169.461 146.754 169.722 146.868C169.985 146.979 170.182 147.125 170.312 147.308C170.443 147.49 170.534 147.706 170.586 147.957C170.618 148.12 170.635 148.405 170.635 148.812V152H169.756V148.846C169.756 148.488 169.722 148.221 169.653 148.045C169.585 147.866 169.463 147.724 169.287 147.62C169.115 147.513 168.911 147.459 168.677 147.459C168.302 147.459 167.979 147.578 167.705 147.815C167.435 148.053 167.3 148.504 167.3 149.168V152H166.421ZM173.906 151.214L174.033 151.99C173.786 152.042 173.564 152.068 173.369 152.068C173.05 152.068 172.803 152.018 172.627 151.917C172.451 151.816 172.327 151.684 172.256 151.521C172.184 151.355 172.148 151.009 172.148 150.481V147.498H171.504V146.814H172.148V145.53L173.022 145.003V146.814H173.906V147.498H173.022V150.53C173.022 150.781 173.037 150.942 173.066 151.014C173.099 151.085 173.149 151.142 173.218 151.185C173.289 151.227 173.39 151.248 173.521 151.248C173.618 151.248 173.747 151.237 173.906 151.214ZM178.32 150.33L179.229 150.442C179.085 150.973 178.82 151.385 178.433 151.678C178.045 151.971 177.55 152.117 176.948 152.117C176.19 152.117 175.588 151.884 175.142 151.419C174.699 150.95 174.478 150.294 174.478 149.451C174.478 148.579 174.702 147.902 175.151 147.42C175.601 146.938 176.183 146.697 176.899 146.697C177.593 146.697 178.159 146.933 178.599 147.405C179.038 147.877 179.258 148.541 179.258 149.397C179.258 149.45 179.256 149.528 179.253 149.632H175.386C175.418 150.201 175.579 150.638 175.869 150.94C176.159 151.243 176.52 151.395 176.953 151.395C177.275 151.395 177.55 151.31 177.778 151.141C178.006 150.971 178.187 150.701 178.32 150.33ZM175.435 148.909H178.33C178.291 148.473 178.18 148.146 177.998 147.928C177.718 147.589 177.355 147.42 176.909 147.42C176.506 147.42 176.165 147.555 175.889 147.825C175.615 148.095 175.464 148.457 175.435 148.909ZM180.176 152.43L181.03 152.557C181.066 152.82 181.165 153.012 181.328 153.133C181.546 153.296 181.844 153.377 182.222 153.377C182.629 153.377 182.943 153.296 183.164 153.133C183.385 152.97 183.535 152.742 183.613 152.449C183.659 152.27 183.68 151.894 183.677 151.321C183.293 151.774 182.814 152 182.241 152C181.528 152 180.977 151.743 180.586 151.229C180.195 150.714 180 150.097 180 149.378C180 148.883 180.09 148.427 180.269 148.011C180.448 147.591 180.706 147.267 181.045 147.039C181.387 146.811 181.787 146.697 182.246 146.697C182.858 146.697 183.363 146.945 183.76 147.439V146.814H184.57V151.297C184.57 152.104 184.487 152.675 184.321 153.011C184.159 153.349 183.898 153.616 183.54 153.812C183.185 154.007 182.747 154.104 182.227 154.104C181.608 154.104 181.108 153.965 180.728 153.685C180.347 153.408 180.163 152.99 180.176 152.43ZM180.903 149.314C180.903 149.995 181.038 150.491 181.309 150.804C181.579 151.116 181.917 151.272 182.324 151.272C182.728 151.272 183.066 151.118 183.34 150.809C183.613 150.496 183.75 150.008 183.75 149.344C183.75 148.709 183.608 148.23 183.325 147.908C183.045 147.586 182.707 147.425 182.31 147.425C181.919 147.425 181.587 147.584 181.313 147.903C181.04 148.219 180.903 148.689 180.903 149.314ZM185.894 152V146.814H186.685V147.601C186.886 147.233 187.072 146.99 187.241 146.873C187.414 146.756 187.603 146.697 187.808 146.697C188.104 146.697 188.405 146.792 188.711 146.98L188.408 147.796C188.193 147.669 187.979 147.605 187.764 147.605C187.572 147.605 187.399 147.664 187.246 147.781C187.093 147.895 186.984 148.055 186.919 148.26C186.821 148.572 186.772 148.914 186.772 149.285V152H185.894ZM189.238 145.853V144.842H190.117V145.853H189.238ZM189.238 152V146.814H190.117V152H189.238ZM193.379 151.214L193.506 151.99C193.258 152.042 193.037 152.068 192.842 152.068C192.523 152.068 192.275 152.018 192.1 151.917C191.924 151.816 191.8 151.684 191.729 151.521C191.657 151.355 191.621 151.009 191.621 150.481V147.498H190.977V146.814H191.621V145.53L192.495 145.003V146.814H193.379V147.498H192.495V150.53C192.495 150.781 192.51 150.942 192.539 151.014C192.572 151.085 192.622 151.142 192.69 151.185C192.762 151.227 192.863 151.248 192.993 151.248C193.091 151.248 193.219 151.237 193.379 151.214ZM194.204 153.997L194.106 153.172C194.299 153.224 194.466 153.25 194.609 153.25C194.805 153.25 194.961 153.217 195.078 153.152C195.195 153.087 195.291 152.996 195.366 152.879C195.422 152.791 195.511 152.573 195.635 152.225C195.651 152.176 195.677 152.104 195.713 152.01L193.745 146.814H194.692L195.771 149.817C195.911 150.198 196.037 150.599 196.147 151.019C196.248 150.615 196.369 150.221 196.509 149.837L197.617 146.814H198.496L196.523 152.088C196.312 152.658 196.147 153.05 196.03 153.265C195.874 153.554 195.695 153.766 195.493 153.899C195.291 154.036 195.05 154.104 194.771 154.104C194.601 154.104 194.412 154.069 194.204 153.997Z" fill="white"/>
</svg>
