<svg width="22" height="26" viewBox="0 0 22 26" fill="none" xmlns="http://www.w3.org/2000/svg">
<g id="Group 221">
<g id="Document">
<path id="Exclude" fill-rule="evenodd" clip-rule="evenodd" d="M4.64771 25.4525C5.07841 25.5331 5.53602 25.574 6.01821 25.574H15.0593C18.829 25.574 21.0714 23.0782 21.0714 18.914V6.66291V6.56446C21.0363 2.45775 18.7997 0.00292969 15.0593 0.00292969H6.01821C2.64288 0.00292969 0.483561 2.00259 0.0751046 5.4355C0.0282901 5.82674 0.00488281 6.23587 0.00488281 6.66291V18.914C0.00488281 22.4479 1.61764 24.7698 4.39257 25.4001L4.64771 25.4525ZM1.68677 6.66286C1.68677 3.48054 3.14387 1.86573 6.01828 1.86573H15.0488C17.922 1.86573 19.3698 3.48054 19.3698 6.66286V18.914C19.3698 22.0963 17.922 23.7111 15.0488 23.7111H6.01828C3.14387 23.7111 1.68677 22.0963 1.68677 18.914V6.66286Z" fill="#16BEA6"/>
<path id="Path" opacity="0.4" d="M14.7433 17.2759C15.2044 17.2759 15.5777 17.6901 15.5777 18.2016C15.5777 18.713 15.2044 19.1272 14.7433 19.1272H6.30378C5.84266 19.1272 5.46814 18.713 5.46814 18.2016C5.46814 17.6901 5.84266 17.2759 6.30378 17.2759H14.7433Z" fill="#16BEA6"/>
<path id="Path_2" opacity="0.4" d="M14.7434 11.8565C15.0653 11.8181 15.3801 11.9869 15.5521 12.2899C15.7242 12.5955 15.7242 12.9816 15.5521 13.2872C15.3801 13.5902 15.0653 13.7589 14.7434 13.7206H6.30394C5.87558 13.6669 5.55139 13.2667 5.55139 12.7885C5.55139 12.3103 5.87558 11.9089 6.30394 11.8565H14.7434Z" fill="#16BEA6"/>
<path id="Path_3" opacity="0.4" d="M9.52457 6.44922C9.95292 6.50164 10.2771 6.9031 10.2771 7.38128C10.2771 7.85818 9.95292 8.25965 9.52457 8.31207H6.31426C5.88474 8.25965 5.56055 7.85818 5.56055 7.38128C5.56055 6.9031 5.88474 6.50164 6.31426 6.44922H9.52457Z" fill="#16BEA6"/>
</g>
</g>
</svg>
