<svg width="24" height="25" viewBox="0 0 24 25" fill="none" xmlns="http://www.w3.org/2000/svg">
<g id="Folder">
<path id="Folder_2" fill-rule="evenodd" clip-rule="evenodd" d="M7.02343 0.445312H9.18704C10.22 0.445312 11.1926 0.97729 11.8118 1.88035L12.7993 3.31713C13.1138 3.77385 13.6057 4.04293 14.1268 4.04407H17.1894C21.4242 4.04407 23.3164 6.46846 23.3163 11.4212L23.2867 17.2953C23.2867 22.0221 20.6411 24.9161 16.32 24.9161H7.89282C3.56341 24.9161 0.91626 22.0238 0.91626 17.2953V8.06608C0.91626 3.10705 2.85377 0.445312 7.02343 0.445312ZM9.18707 2.22132H7.02346C3.84212 2.22132 2.53979 4.01045 2.53979 8.06616V17.2954C2.53979 21.0426 4.45965 23.1402 7.89286 23.1402H16.3201C19.7445 23.1402 21.6633 21.0414 21.6633 17.2905L21.6929 11.4164C21.6929 7.39256 20.4656 5.82008 17.1895 5.82008L14.1252 5.82008C13.0938 5.81783 12.123 5.28685 11.5021 4.38504L10.5136 2.94685C10.2004 2.49012 9.70898 2.22132 9.18707 2.22132Z" fill="#21BF07"/>
<path id="Line_194" opacity="0.4" d="M17.2883 14.9053C17.7366 14.9053 18.1 15.3028 18.1 15.7932C18.1 16.2428 17.7946 16.6143 17.3984 16.6731L17.2883 16.6812H6.90489C6.45657 16.6812 6.09314 16.2836 6.09314 15.7932C6.09314 15.3437 6.39852 14.9722 6.79474 14.9134L6.90489 14.9053H17.2883Z" fill="#21BF07"/>
</g>
</svg>
