<svg width="60" height="60" viewBox="0 0 60 60" fill="none" xmlns="http://www.w3.org/2000/svg">
<g id="Profile Pics 1" clip-path="url(#clip0_317_2242)">
<g id="Layer_x0020_1">
<g id="_1823369841696">
<path id="Vector" fill-rule="evenodd" clip-rule="evenodd" d="M18.4769 26.1174C18.2081 19.3489 16.8595 12.4377 26.918 10.7848C30.862 10.1369 31.366 11.7686 33.9739 11.763C38.9011 11.7529 41.7321 15.4095 41.5316 20.4358C41.4813 21.6955 41.4637 22.9598 41.4027 24.2278C41.2392 27.6423 41.8523 25.3369 42.3591 27.1936C42.6349 28.2042 42.0652 31.2578 41.3579 32.0711C40.8982 32.5993 40.2986 32.6903 40.2986 32.6903C40.2713 32.64 40.1789 32.7241 40.1249 32.7536C38.9644 39.45 35.9106 40.6787 35.371 41.5239C35.9947 42.3756 36.1587 41.5424 37.0794 42.9403C37.7655 43.9814 37.3917 43.5798 38.9625 43.8839C43.1463 44.694 48.2573 46.1426 50.831 49.0197C57.8154 42.1173 61.0516 28.6802 55.4371 17.4455C44.3599 -4.7216 14.2045 -2.95868 4.30632 17.2935C-0.0313027 26.1691 0.487051 37.9366 6.43194 46.0974C7.18822 47.1357 8.0392 48.0692 8.51875 49.0045C9.65524 48.6149 9.30783 48.461 10.4397 47.6131C12.071 46.3908 14.3176 45.5604 16.3296 44.9647C17.8389 44.5179 19.3344 44.157 20.9204 43.8543C22.4094 43.5706 21.9322 43.8728 22.712 42.8266C23.5279 41.7319 23.7506 42.2725 24.3063 41.5244C23.9529 40.9597 22.9037 40.2175 22.4847 39.7407C20.3087 37.2638 20.014 33.1631 19.3774 32.7684L18.5767 32.2717C18.2002 31.9759 18.2464 32.0129 18.0394 31.6224C17.5862 30.7666 17.1099 28.2759 17.316 27.2971C17.5137 26.3586 17.7706 26.4926 18.4769 26.1169V26.1174Z" fill="white"/>
<path id="Vector_2" fill-rule="evenodd" clip-rule="evenodd" d="M18.477 26.1177C17.7707 26.4934 17.5138 26.3594 17.3161 27.2979C17.11 28.2767 17.5863 30.7674 18.0395 31.6232C18.2465 32.0137 18.2003 31.9767 18.5768 32.2725L19.3775 32.7692C20.0141 33.1639 20.3088 37.2646 22.4848 39.7415C22.9034 40.2179 23.953 40.9605 24.3064 41.5252C23.7511 42.2733 23.528 41.7327 22.7121 42.8274C21.9323 43.8736 22.41 43.5714 20.9205 43.8551C19.334 44.1578 17.839 44.5187 16.3297 44.9655C14.3178 45.5612 12.0711 46.3916 10.4398 47.6139C9.30793 48.4618 9.65489 48.6157 8.51885 49.0053C8.03931 48.07 7.18832 47.1365 6.43204 46.0982C0.487616 37.9374 -0.0311996 26.1699 4.30643 17.2943C14.2046 -2.95787 44.36 -4.7208 55.4372 17.4463C61.0513 28.681 57.8155 42.1181 50.8311 49.0205C48.2574 46.1434 43.1469 44.6947 38.9626 43.8847C37.3923 43.5806 37.7656 43.9826 37.0795 42.9411C36.1588 41.5432 35.9948 42.3764 35.3711 41.5247C35.9107 40.6795 38.9645 39.4508 40.125 32.7544C40.179 32.7249 40.2714 32.6408 40.2987 32.6911C40.2987 32.6911 40.8988 32.6001 41.358 32.0719C42.0653 31.2586 42.635 28.205 42.3592 27.1944C41.8524 25.3377 41.2393 27.6431 41.4028 24.2286C41.4634 22.9606 41.4814 21.6963 41.5317 20.4366C41.7318 15.4098 38.9007 11.7537 33.974 11.7638C31.3661 11.7694 30.8621 10.1377 26.9181 10.7856C16.8596 12.438 18.2082 19.3493 18.477 26.1182V26.1177ZM26.4852 0.327687C5.63696 2.64514 -6.28793 24.9195 3.74465 44.2553C4.49122 45.6943 5.86426 47.6587 6.71478 48.6462C9.08017 51.3929 11.3689 53.6189 14.7359 55.562C23.5492 60.648 35.3905 61.2339 44.348 55.9382C46.8516 54.4581 48.7864 53.0967 50.6639 51.1069C51.2844 50.4498 51.9967 49.9456 52.5539 49.2026C57.4995 42.6088 60.4567 35.9134 59.4565 26.7439C57.7762 11.3378 43.9974 -1.61869 26.4847 0.328149L26.4852 0.327687Z" fill="#808080"/>
</g>
</g>
</g>
<defs>
<clipPath id="clip0_317_2242">
<rect width="59.5181" height="59.5181" fill="white" transform="translate(0.13253 0.132812)"/>
</clipPath>
</defs>
</svg>
