<svg width="25" height="23" viewBox="0 0 25 23" fill="none" xmlns="http://www.w3.org/2000/svg">
<g id="Ticket">
<g id="Group 219" opacity="0.4">
<path id="Stroke 1" d="M14.6171 0.651855C15.046 0.651855 15.4004 1.00181 15.4565 1.45586L15.4642 1.58208V4.58362C15.4642 5.09738 15.085 5.51385 14.6171 5.51385C14.1883 5.51385 13.8338 5.1639 13.7778 4.70985L13.77 4.58362V1.58208C13.77 1.06833 14.1493 0.651855 14.6171 0.651855Z" fill="#E32CBC"/>
<path id="Stroke 3" d="M14.6171 17.4077C15.046 17.4077 15.4004 17.7577 15.4565 18.2117L15.4642 18.3379V20.8483C15.4642 21.3621 15.085 21.7786 14.6171 21.7786C14.1883 21.7786 13.8338 21.4286 13.7778 20.9745L13.77 20.8483V18.3379C13.77 17.8242 14.1493 17.4077 14.6171 17.4077Z" fill="#E32CBC"/>
<path id="Stroke 6" d="M14.6171 7.16699C15.046 7.16699 15.4004 7.51695 15.4565 7.97099L15.4642 8.09722V14.0767C15.4642 14.5905 15.085 15.007 14.6171 15.007C14.1883 15.007 13.8338 14.657 13.7778 14.203L13.77 14.0767V8.09722C13.77 7.58347 14.1493 7.16699 14.6171 7.16699Z" fill="#E32CBC"/>
</g>
<path id="Ticket_2" fill-rule="evenodd" clip-rule="evenodd" d="M4.9593 0.341309H20.0968C22.6195 0.341309 24.6689 2.56324 24.6689 5.31066L24.67 8.52744C24.6702 9.04134 24.2909 9.45804 23.8229 9.45804C22.927 9.45804 22.2115 10.2344 22.2115 11.1953C22.2115 12.1557 22.9266 12.9312 23.8229 12.9312C24.2908 12.9312 24.67 13.3477 24.67 13.8614V17.0769C24.67 19.8251 22.6215 22.0467 20.098 22.0467H4.95812C2.43463 22.0467 0.386108 19.8251 0.386108 17.0769V13.8614C0.386108 13.3477 0.765374 12.9312 1.23322 12.9312C2.12952 12.9312 2.84464 12.1557 2.84464 11.1953C2.84464 10.2666 2.15881 9.5628 1.23322 9.5628L1.11824 9.5543C0.704661 9.49267 0.385941 9.10327 0.386108 8.63221L0.387286 5.31103C0.387286 2.56324 2.43662 0.341309 4.9593 0.341309ZM20.2862 2.20856L20.0967 2.20193H4.95919C3.36741 2.20193 2.08141 3.59625 2.08141 5.31156L2.0791 7.81431L2.17558 7.84086C3.48789 8.2381 4.45185 9.45252 4.53319 10.9846L4.53876 11.1954C4.53876 12.8327 3.54124 14.2068 2.17221 14.6454L2.08023 14.6707V17.0771C2.08023 18.7239 3.26474 20.0743 4.76845 20.1797L4.95801 20.1864H20.0979C21.6904 20.1864 22.9757 18.7925 22.9757 17.0771V14.672L22.8837 14.6454C21.5742 14.2259 20.6046 12.9504 20.5228 11.4074L20.5172 11.1954C20.5172 9.55808 21.5148 8.18315 22.8838 7.74431L22.9746 7.71757L22.9745 5.3112C22.9745 3.66484 21.7893 2.31399 20.2862 2.20856Z" fill="#E32CBC"/>
</g>
</svg>
